<svg width="19" height="19" viewBox="0 0 19 19" fill="none" xmlns="http://www.w3.org/2000/svg">
<path d="M13.5472 5.47173L11.0748 2.4841L10.3975 1.37633L10.9394 0L7.65417 2.75265L10.1265 5.70671L10.8039 6.81449L10.262 8.19081L13.5472 5.47173Z" fill="#18456E"/>
<path d="M8.77183 4.12898L4.91087 4.19612L3.62388 4.02827L2.91266 2.75266L3.01426 7.01591L6.87522 6.94877L8.16221 7.11661L8.87343 8.39223L8.77183 4.12898Z" fill="#BF3434"/>
<path d="M4.74153 7.0159L2.40464 10.0707L1.49019 11.0106L0 10.7756L3.42068 13.3269L5.75758 10.2721L6.67201 9.36572L8.16221 9.6007L4.74153 7.0159Z" fill="#152B46"/>
<path d="M4.50445 11.9505L5.41889 15.6767L5.58823 16.9523L4.47058 17.9594L8.60249 16.8852L7.65419 13.159L7.48485 11.8834L8.60249 10.9099L4.50445 11.9505Z" fill="#BF3434"/>
<path d="M8.22992 15.2067L11.7183 16.818L12.836 17.523L12.9376 19L14.6649 15.106L11.1426 13.4947L10.0249 12.8233L9.92332 11.3463L8.22992 15.2067Z" fill="#18456E"/>
<path d="M13.1069 14.3339L16.5615 12.6219L17.7807 12.1855L19 13.0247L17.0356 9.26501L13.5811 10.977L12.328 11.4134L11.1087 10.5742L13.1069 14.3339Z" fill="#BF3434"/>
<path d="M15.4777 10.0035L16.2567 6.24382L16.697 5.00177L18.1194 4.59894L13.9198 3.75972L13.1408 7.51944L12.7005 8.76149L11.2781 9.16431L15.4777 10.0035Z" fill="#152B46"/>
</svg>
