<svg width="130" height="30" viewBox="0 0 130 30" fill="none" xmlns="http://www.w3.org/2000/svg">
<path d="M21.5562 8.63958L17.6222 3.92226L16.5444 2.17315L17.4066 0L12.1793 4.34629L16.1133 9.0106L17.1911 10.7597L16.3288 12.9329L21.5562 8.63958Z" fill="#18456E"/>
<path d="M13.9576 6.51943L7.81412 6.62544L5.76627 6.36042L4.63458 4.34628L4.79625 11.0777L10.9398 10.9717L12.9876 11.2367L14.1193 13.2509L13.9576 6.51943Z" fill="#BF3434"/>
<path d="M7.54467 11.0777L3.82623 15.9011L2.37118 17.3851L0 17.0141L5.44294 21.0424L9.16138 16.2191L10.6164 14.788L12.9876 15.159L7.54467 11.0777Z" fill="#152B46"/>
<path d="M7.16742 18.8693L8.62247 24.7527L8.89192 26.7668L7.11353 28.3569L13.6882 26.6608L12.1792 20.7774L11.9098 18.7633L13.6882 17.2262L7.16742 18.8693Z" fill="#BF3434"/>
<path d="M13.0953 24.0106L18.6461 26.5548L20.4244 27.6678L20.5861 30L23.3345 23.8516L17.7299 21.3074L15.9515 20.2473L15.7899 17.9152L13.0953 24.0106Z" fill="#18456E"/>
<path d="M20.8556 22.6325L26.3525 19.9293L28.2925 19.2403L30.2326 20.5654L27.1069 14.629L21.6101 17.3322L19.6161 18.0212L17.6761 16.6961L20.8556 22.6325Z" fill="#BF3434"/>
<path d="M24.628 15.7951L25.8675 9.85866L26.568 7.89753L28.8314 7.26149L22.149 5.9364L20.9095 11.8728L20.209 13.8339L17.9456 14.47L24.628 15.7951Z" fill="#152B46"/>
<path d="M47.8268 16.897L47.8438 18.206C47.7985 19.0333 47.6965 19.7303 47.5378 20.297C47.3791 20.8637 47.0675 21.3793 46.6028 21.844C45.8321 22.6147 44.7101 23 43.2368 23C41.5028 23 40.3128 22.7733 39.6668 22.32C39.0208 21.8553 38.6978 21.0223 38.6978 19.821V10.896H43.4068C44.7668 10.896 45.8321 11.2813 46.6028 12.052C47.2261 12.6753 47.5945 13.4347 47.7078 14.33C47.7871 14.9647 47.8268 15.8203 47.8268 16.897ZM44.9538 20.144C45.1691 19.8833 45.3051 19.5263 45.3618 19.073C45.4298 18.6083 45.4638 17.8887 45.4638 16.914C45.4638 15.9393 45.4298 15.2367 45.3618 14.806C45.3051 14.364 45.1691 14.0127 44.9538 13.752C44.5458 13.2533 43.9565 13.004 43.1858 13.004H41.0608V19.702C41.0608 20.1553 41.2138 20.467 41.5198 20.637C41.8258 20.807 42.3698 20.892 43.1518 20.892C43.9451 20.892 44.5458 20.6427 44.9538 20.144ZM54.9869 18.614V17.73C54.9869 16.8913 54.8622 16.251 54.6129 15.809C54.3749 15.367 53.8705 15.146 53.0999 15.146C51.8532 15.146 51.2299 15.9847 51.2299 17.662V18.546C51.2299 20.348 51.8532 21.249 53.0999 21.249C53.9045 21.249 54.4315 20.9487 54.6809 20.348C54.8849 19.872 54.9869 19.294 54.9869 18.614ZM57.1969 18.104C57.1969 20.2007 56.8002 21.606 56.0069 22.32C55.3382 22.932 54.3692 23.238 53.0999 23.238C51.4792 23.238 50.3855 22.762 49.8189 21.81C49.2862 20.9373 49.0199 19.702 49.0199 18.104C49.0199 16.608 49.2862 15.435 49.8189 14.585C50.4082 13.633 51.4792 13.157 53.0319 13.157C54.5959 13.157 55.6782 13.5763 56.2789 14.415C56.8909 15.2423 57.1969 16.472 57.1969 18.104ZM70.5583 13.293L67.8553 23H66.0363L64.1833 17.101L62.3303 23H60.5113L57.7913 13.293H60.1373L61.5653 19.617L63.0443 14.415C63.2143 13.667 63.5997 13.293 64.2003 13.293C64.4837 13.293 64.7103 13.3837 64.8803 13.565C65.0503 13.7463 65.192 14.0297 65.3053 14.415L66.8013 19.617L68.2293 13.293H70.5583ZM79.3947 23H77.1847V16.795C77.1847 16.2397 77.0714 15.86 76.8447 15.656C76.6181 15.452 76.3007 15.35 75.8927 15.35L73.9037 16.183V23H71.6937V13.293H73.3427L73.8527 14.449L76.5727 13.191C77.3321 13.191 77.9894 13.4743 78.5447 14.041C79.1114 14.5963 79.3947 15.4123 79.3947 16.489V23ZM83.7339 23L81.5239 23.017V10.216H83.7339V23ZM91.3609 18.614V17.73C91.3609 16.8913 91.2362 16.251 90.9869 15.809C90.7489 15.367 90.2445 15.146 89.4739 15.146C88.2272 15.146 87.6039 15.9847 87.6039 17.662V18.546C87.6039 20.348 88.2272 21.249 89.4739 21.249C90.2785 21.249 90.8055 20.9487 91.0549 20.348C91.2589 19.872 91.3609 19.294 91.3609 18.614ZM93.5709 18.104C93.5709 20.2007 93.1742 21.606 92.3809 22.32C91.7122 22.932 90.7432 23.238 89.4739 23.238C87.8532 23.238 86.7595 22.762 86.1929 21.81C85.6602 20.9373 85.3939 19.702 85.3939 18.104C85.3939 16.608 85.6602 15.435 86.1929 14.585C86.7822 13.633 87.8532 13.157 89.4059 13.157C90.9699 13.157 92.0522 13.5763 92.6529 14.415C93.2649 15.2423 93.5709 16.472 93.5709 18.104ZM102.019 23H100.54L99.8604 21.827L97.4974 23.102C96.1827 23.102 95.2987 22.626 94.8454 21.674C94.6187 21.2093 94.46 20.7107 94.3694 20.178C94.29 19.634 94.2504 19.073 94.2504 18.495C94.2504 17.9057 94.256 17.475 94.2674 17.203C94.2787 16.9197 94.307 16.5967 94.3524 16.234C94.3977 15.86 94.46 15.5483 94.5394 15.299C94.63 15.0497 94.7547 14.7947 94.9134 14.534C95.072 14.262 95.2647 14.0467 95.4914 13.888C96.0014 13.5367 96.6644 13.361 97.4804 13.361H99.8094L102.019 13.225V23ZM99.8094 19.906V15.35H98.1264C97.503 15.35 97.0667 15.588 96.8174 16.064C96.5794 16.54 96.4604 17.254 96.4604 18.206C96.4604 19.1467 96.5737 19.8097 96.8004 20.195C97.0384 20.5803 97.4804 20.773 98.1264 20.773L99.8094 19.906ZM111.474 23H109.995L109.315 21.827L106.952 23.102C105.638 23.102 104.754 22.626 104.3 21.674C104.074 21.2093 103.915 20.7107 103.824 20.178C103.745 19.634 103.705 19.073 103.705 18.495C103.705 17.9057 103.711 17.475 103.722 17.203C103.734 16.9197 103.762 16.5967 103.807 16.234C103.853 15.86 103.915 15.5483 103.994 15.299C104.085 15.0497 104.21 14.7947 104.368 14.534C104.527 14.262 104.72 14.0467 104.946 13.888C105.456 13.5367 106.119 13.361 106.935 13.361H109.264V10.216H111.474V23ZM109.264 19.906V15.35H107.581C106.958 15.35 106.522 15.588 106.272 16.064C106.034 16.54 105.915 17.254 105.915 18.206C105.915 19.1467 106.029 19.8097 106.255 20.195C106.493 20.5803 106.935 20.773 107.581 20.773L109.264 19.906ZM121.225 18.665H115.564C115.564 19.549 115.7 20.195 115.972 20.603C116.255 21.011 116.816 21.215 117.655 21.215C118.199 21.215 118.601 21.045 118.862 20.705C119.122 20.3537 119.253 20.0193 119.253 19.702H121.242C121.242 20.9147 120.913 21.8043 120.256 22.371C119.61 22.9377 118.748 23.221 117.672 23.221C116.606 23.221 115.779 23.068 115.19 22.762C113.977 22.1387 113.371 20.484 113.371 17.798C113.371 16.2 113.716 15.0327 114.408 14.296C115.099 13.548 116.153 13.174 117.57 13.174C120.029 13.174 121.259 14.5397 121.259 17.271C121.259 17.5657 121.247 18.0303 121.225 18.665ZM115.615 17.152H119.253C119.253 16.404 119.111 15.86 118.828 15.52C118.544 15.18 118.108 15.01 117.519 15.01C116.941 15.01 116.476 15.1857 116.125 15.537C115.785 15.877 115.615 16.4153 115.615 17.152ZM128.413 13.327L127.801 15.503C127.631 15.435 127.439 15.401 127.223 15.401C126.657 15.401 125.96 15.6447 125.132 16.132V23H122.922V13.293H124.571L125.081 14.143L127.427 13.174C127.541 13.1627 127.694 13.157 127.886 13.157C128.079 13.157 128.255 13.2137 128.413 13.327Z" fill="black"/>
</svg>
